# xmcd
#
# Track frame offsets:
#	151
#	23777
#	41680
#	64415
#	86610
#	104987
#	128732
#	145270
#	165071
#	189090
#	204765
#	227200
#	244580
#	265433
#	284474
#
# Disc length: 4186 seconds
#
# Revision: 1
# Processed by: cddbd v1.5.2PL0 Copyright (c) Steve Scherf et al.
# Submitted via: audiograbber 1.83.01
#
DISCID=d110580f
DTITLE=MacLeod Doug - You Can´t Take My Blues (92)
DYEAR=1900
DGENRE=
TTITLE0=One Good Woman
TTITLE1=Bus With No Destination
TTITLE2=You Can´t Take My Blues
TTITLE3=Things´ Il Be Better, You´ll See
TTITLE4=Papa John
TTITLE5=Hey Bartender
TTITLE6=Another Funny Deal Goin´ Down
TTITLE7=Walkin´ My Way Back To You
TTITLE8=All I Had Was The Blues
TTITLE9=Runnin´ With Carey
TTITLE10=Chill On Cold
TTITLE11=Handle It Yourself
TTITLE12=Sometimes I Wonder
TTITLE13=Come To Find (94)
TTITLE14=Bring It On Home (95)
EXTD=
EXTT0=
EXTT1=
EXTT2=
EXTT3=
EXTT4=
EXTT5=
EXTT6=
EXTT7=
EXTT8=
EXTT9=
EXTT10=
EXTT11=
EXTT12=
EXTT13=
EXTT14=
PLAYORDER=
